<?xml version="1.0" encoding="UTF-8" standalone="no"?>
<!-- Created with Inkscape (http://www.inkscape.org/) -->
<svg xmlns:inkscape="http://www.inkscape.org/namespaces/inkscape" xmlns:sodipodi="http://sodipodi.sourceforge.net/DTD/sodipodi-0.dtd" xmlns="http://www.w3.org/2000/svg" xmlns:svg="http://www.w3.org/2000/svg" version="1.1" id="svg2" xml:space="preserve" width="157.37334" height="581.1333" viewBox="0 0 157.37334 581.1333" sodipodi:docname="CC_Logo_Rocket.eps">
  <defs id="defs6"></defs>
  <g id="g8" inkscape:groupmode="layer" inkscape:label="ink_ext_XXXXXX" transform="matrix(1.3333333,0,0,-1.3333333,0,581.13333)">
    <g id="g10" transform="scale(0.1)">
      <path d="M 588.973,0 C 511.508,57.0313 445.105,123.98 384.441,199.352 330.359,266.391 285.09,337.199 249.379,414.469 c -75.77,163.883 -81.047,334.91 -49.781,509.863 10.308,57.57 51.765,27.777 78.277,29.848 37.063,2.832 17.305,-25.981 14.477,-42.348 -21.969,-127.391 -27.227,-256.07 11.875,-379.402 36.847,-116.371 98.929,-221.899 183.23,-312.348 17.555,-18.852 34.859,-37.992 53.656,-55.562 50.582,-46.801 52.512,-48.079 98.93,0.511 92.684,96.891 169.25,202.821 219.434,330.461 53.054,135.09 50.675,269.309 32.726,407.52 -2.379,18.347 -25.293,50.488 18.246,51.367 30.653,0.703 69.824,17.363 76.867,-39.57 C 1002.68,790.34 1010.92,665.391 976.152,544.379 941.84,424.68 885.953,314.391 808.203,214.32 756.879,148.27 696.574,91.7305 640.594,30.6406 628.289,17.1523 604.293,21.5195 598.938,0 c -3.329,0 -6.649,0 -9.965,0" style="fill:#c23336;fill-opacity:1;fill-rule:evenodd;stroke:none" id="path12"></path>
      <path d="m 593.879,3268.78 c 102.84,0 205.746,1.3 308.641,-0.71 37.789,-0.76 43.64,10.86 28.562,42.8 -40.168,85.4 -75.867,172.47 -127.344,252.78 -59.015,91.97 -118.472,182.36 -199.742,256.7 -9.973,9.1 -6.051,18 -22.859,2.35 -39.274,-36.69 -68.285,-80.4 -101.211,-121.74 -52.172,-65.51 -91.922,-138.65 -135.778,-209.38 -35.187,-56.69 -47.578,-123.28 -83.164,-179.62 -20.921,-33.17 -9.242,-44.68 29.282,-43.89 101.191,2.06 202.449,0.71 303.613,0.71 z m 44.031,871.49 c 0,-41.48 6.992,-84.47 -1.484,-124.17 -16.016,-74.96 27.469,-119.26 72.594,-163.42 54.054,-52.94 94.023,-116.21 138.753,-176.27 51.079,-68.57 84.497,-146.8 127.442,-219.71 22.113,-37.56 36.395,-80.54 50.035,-120.74 32.98,-97.11 68.08,-194.16 83.66,-297.11 7.54,-49.7 19.93,-98.83 23.5,-149.48 1.84,-25.07 -5,-40.79 -31.74,-34.81 -23.3,5.23 -65.05,-26.04 -65.65,29.58 -0.89,88.09 -35.809,169.92 -46.762,256.15 -2.727,21.84 -12.899,30.42 -36.059,30.35 -239.011,-0.72 -478.027,-0.77 -717.051,0.05 -24.519,0.07 -32.175,-12.13 -34.937,-32.01 -12.094,-87.53 -54.27,-168.91 -51.961,-259.56 1.008,-40.33 -31.02,-25.86 -50.8359,-24.76 -19.5586,1.08 -49.9844,-10.59 -47.3516,30.5 7.2852,113.33 39.2461,220.39 77.3825,326.46 18.641,51.87 34.567,104.44 54.993,156.03 35.457,89.56 78.222,174.84 126.972,256.67 60.449,101.49 129.078,198.11 215.246,280.32 16.258,15.43 13.934,32.44 14.176,50.1 1.688,117.85 5.156,235.71 3.176,353.49 -0.797,44.48 16.168,48.72 54.449,50.43 46.613,2.09 45.523,-20.73 44.379,-53.75 -1.934,-54.75 -0.543,-109.54 -0.543,-164.34 -0.746,0 -1.586,0 -2.383,0" style="fill:#c23336;fill-opacity:1;fill-rule:evenodd;stroke:none" id="path14"></path>
      <path d="m 885.16,1261.79 c 29.551,84.75 59.559,168.35 87.676,252.56 9.223,27.96 12.797,57.81 20.336,86.43 34.808,132.46 57.418,266.63 68.728,403.4 3.87,46.82 16.17,93.53 17.11,141.52 0.63,30.85 -8.68,35.22 -34.17,19.65 -73.938,-45.03 -147.774,-90.11 -221.117,-136.18 -63.778,-40.01 -130.918,-75.32 -194.141,-116.93 -27.227,-17.9 -54.852,-14.48 -82.371,2.78 -93.074,58.51 -185.387,118.42 -280.543,173.36 -52.668,30.45 -100.941,70.52 -162.453,89.76 -8.0627,-109.99 21.375,-210.95 30.32,-313.85 10.016,-115.49 40.617,-226.82 71.809,-336.66 19.832,-69.97 33.043,-144.25 70.539,-209.66 9.172,-15.96 30.094,-43.34 0.246,-58.91 -33.277,-17.35 -82.715,2.19 -93.574,30 -81.621,208.33 -127.7152,424.24 -156.4534,646.2 -16.6368,128.43 -23.78129,256.07 -25.5391,384.73 -0.14453,10.49 -6.14844,24.47 6.39453,31.02 11.37887,5.92 22.26567,-1.73 32.18357,-8.04 67.5474,-42.79 134.8284,-85.91 202.7184,-128.23 73.371,-45.83 150.059,-86.09 220.7,-136.82 30.941,-22.16 68.824,-34.52 99.578,-59.66 19.133,-15.57 45.668,-8.82 64.457,4.76 111.273,80.24 234.211,141.73 348.316,217.5 56.14,37.26 117.52,66.37 172.47,106.07 29.65,21.37 31.64,-0.92 31.83,-23.97 1,-134.22 -5.6,-267.77 -27.92,-400.46 -10.2,-60.4 -11.05,-122.88 -25.73,-181.99 -34.71,-140.64 -58.51,-284.54 -118.27,-418.13 -32.677,-73.2 -33.028,-73.09 -123.13,-60.25" style="fill:#c23336;fill-opacity:1;fill-rule:evenodd;stroke:none" id="path16"></path>
      <path d="M 730.25,860.27 C 715.27,787.371 682.742,702.98 600.273,644.859 c -9.968,-7.05 -9.171,-8.238 -19.589,-1.097 -86.032,58.957 -150.45,176.789 -129.274,285.629 4.86,24.941 18.199,26.879 38.227,26.629 56.238,-0.649 112.422,-0.141 168.66,-0.25 72.844,0 72.844,0 71.953,-95.5" style="fill:#c23336;fill-opacity:1;fill-rule:evenodd;stroke:none" id="path18"></path>
    </g>
  </g>
</svg>
