<svg xmlns:inkscape="http://www.inkscape.org/namespaces/inkscape" xmlns:sodipodi="http://sodipodi.sourceforge.net/DTD/sodipodi-0.dtd" xmlns="http://www.w3.org/2000/svg" xmlns:svg="http://www.w3.org/2000/svg" id="svg2" xml:space="preserve" width="599.05334" height="257" viewBox="0 0 599.05334 257" sodipodi:docname="CC_Logo_White.eps">  <defs id="defs6"></defs>  <g id="g8" inkscape:groupmode="layer" inkscape:label="ink_ext_XXXXXX" transform="matrix(1.3333333,0,0,-1.3333333,0,257)">    <g id="g10" transform="scale(0.1)">      <path d="m 2342.06,0 c -34.26,25.2188 -63.63,54.832 -90.46,88.1602 -23.91,29.6488 -43.93,60.9608 -59.73,95.1288 -33.51,72.481 -35.84,148.121 -22.01,225.492 4.56,25.457 22.89,12.278 34.61,13.199 16.4,1.25 7.66,-11.492 6.41,-18.73 -9.72,-56.34 -12.04,-113.25 5.25,-167.789 16.29,-51.461 43.75,-98.129 81.03,-138.1407 7.77,-8.332 15.42,-16.789 23.73,-24.5586 22.37,-20.7031 23.22,-21.2734 43.75,0.2188 40.99,42.8475 74.85,89.6995 97.05,146.1405 23.46,59.75 22.41,119.109 14.47,180.231 -1.05,8.109 -11.19,22.328 8.07,22.718 13.55,0.309 30.88,7.668 33.99,-17.5 6.8,-55.05 10.44,-110.308 -4.93,-163.82 -15.18,-52.941 -39.9,-101.719 -74.28,-145.9687 -22.7,-29.211 -49.37,-54.2227 -74.13,-81.2305 C 2359.44,7.57813 2348.83,9.51172 2346.46,0 c -1.47,0 -2.94,0 -4.4,0" style="fill:#c23336;fill-opacity:1;fill-rule:evenodd;stroke:none" id="path12"></path>      <path d="m 996.082,937.719 c 0,-113.309 0,-224.899 0,-336.5 0,-5.16 0.012,-10.278 0.012,-15.418 -0.012,-29.602 -9.867,-36.75 -39.758,-29.821 -12.992,2.981 -7.293,12.848 -7.313,19.43 -0.41,98.418 -0.289,196.852 -0.289,295.25 0,49.211 -0.261,98.445 0.332,147.64 0.063,6.5 -6.261,18.85 7.039,18.88 11.313,0.02 24.836,6.88 34.278,-5.85 39.397,-53.123 81.267,-104.4 122.267,-156.24 32.53,-41.121 65.88,-81.91 98.8,-122.789 26.04,-32.352 54.29,-63.379 75.97,-99.192 2.8,-4.629 7.84,-5.66 14.1,-7.257 0,77.449 0,154.347 0,231.187 0,47.742 0.55,95.488 -0.34,143.221 -0.25,13.69 3.54,17.5 17.1,17.01 37.74,-1.3 30.63,3.01 30.7,-29.92 0.27,-143.229 0.19,-286.452 -0.1,-429.659 -0.02,-7.152 4.77,-19.472 -5.84,-20.461 -13.58,-1.25 -30.2,-8.23 -41.28,5.571 -31.15,38.75 -61.03,78.527 -92.15,117.328 -32.4,40.371 -65.99,79.801 -98.49,120.09 -26.03,32.261 -50.44,65.902 -77.17,97.57 -11.31,13.371 -17.53,32.301 -37.868,39.93" style="fill:#ffffff;fill-opacity:1;fill-rule:evenodd;stroke:none" id="path14"></path>      <path d="m 2344.23,1445.6 c 45.48,0 90.99,0.58 136.49,-0.31 16.71,-0.34 19.3,4.8 12.63,18.92 -17.76,37.77 -33.55,76.28 -56.31,111.79 -26.1,40.68 -52.4,80.65 -88.34,113.53 -4.41,4.02 -2.68,7.96 -10.11,1.04 -17.37,-16.23 -30.2,-35.56 -44.76,-53.84 -23.07,-28.97 -40.65,-61.32 -60.05,-92.6 -15.56,-25.07 -21.04,-54.52 -36.78,-79.43 -9.25,-14.67 -4.08,-19.76 12.95,-19.41 44.76,0.91 89.54,0.31 134.28,0.31 z m 19.47,385.41 c 0,-18.34 3.09,-37.35 -0.66,-54.91 -7.08,-33.15 12.15,-52.74 32.11,-72.27 23.9,-23.41 41.58,-51.4 61.36,-77.95 22.59,-30.33 37.37,-64.93 56.36,-97.17 9.78,-16.61 16.1,-35.62 22.13,-53.4 14.58,-42.95 30.11,-85.86 37,-131.39 3.33,-21.99 8.81,-43.71 10.39,-66.11 0.81,-11.09 -2.21,-18.04 -14.04,-15.4 -10.3,2.32 -28.77,-11.51 -29.03,13.08 -0.39,38.96 -15.84,75.15 -20.68,113.28 -1.21,9.66 -5.71,13.46 -15.95,13.43 -105.7,-0.32 -211.4,-0.34 -317.11,0.02 -10.85,0.03 -14.23,-5.36 -15.45,-14.15 -5.35,-38.71 -24,-74.7 -22.98,-114.79 0.44,-17.84 -13.72,-11.44 -22.48,-10.96 -8.65,0.48 -22.11,-4.68 -20.95,13.49 3.23,50.12 17.36,97.47 34.23,144.38 8.24,22.94 15.28,46.19 24.32,69.01 15.68,39.6 34.59,77.31 56.15,113.51 26.73,44.88 57.08,87.61 95.19,123.96 7.19,6.83 6.16,14.35 6.27,22.16 0.75,52.12 2.28,104.24 1.41,156.33 -0.36,19.67 7.15,21.55 24.08,22.3 20.61,0.93 20.13,-9.16 19.62,-23.77 -0.85,-24.21 -0.24,-48.44 -0.24,-72.68 -0.33,0 -0.7,0 -1.05,0" style="fill:#c23336;fill-opacity:1;fill-rule:evenodd;stroke:none" id="path16"></path>      <path d="m 2473.04,558.02 c 13.07,37.48 26.34,74.449 38.78,111.691 4.08,12.371 5.66,25.57 8.99,38.219 15.4,58.582 25.39,117.922 30.4,178.41 1.71,20.699 7.15,41.359 7.56,62.586 0.28,13.64 -3.84,15.574 -15.11,8.683 -32.7,-19.91 -65.35,-39.847 -97.79,-60.218 -28.2,-17.7 -57.89,-33.313 -85.86,-51.711 -12.04,-7.918 -24.25,-6.41 -36.42,1.23 -41.17,25.871 -81.99,52.371 -124.07,76.672 -23.29,13.457 -44.64,31.18 -71.85,39.688 -3.56,-48.641 9.46,-93.29 13.41,-138.801 4.43,-51.071 17.97,-100.309 31.76,-148.879 8.77,-30.949 14.61,-63.801 31.2,-92.731 4.05,-7.058 13.3,-19.16 0.1,-26.05 -14.71,-7.668 -36.58,0.972 -41.38,13.269 -36.1,92.133 -56.48,187.613 -69.19,285.781 -7.36,56.801 -10.52,113.246 -11.29,170.141 -0.07,4.64 -2.72,10.82 2.82,13.72 5.04,2.62 9.85,-0.77 14.24,-3.55 29.87,-18.93 59.63,-37.998 89.65,-56.717 32.45,-20.262 66.36,-38.07 97.6,-60.504 13.69,-9.801 30.44,-15.269 44.04,-26.39 8.46,-6.879 20.2,-3.899 28.51,2.113 49.21,35.484 103.57,62.676 154.04,96.183 24.82,16.485 51.97,29.355 76.27,46.915 13.12,9.45 13.99,-0.41 14.08,-10.61 0.44,-59.351 -2.48,-118.41 -12.35,-177.09 -4.51,-26.718 -4.89,-54.351 -11.38,-80.488 -15.35,-62.203 -25.87,-125.844 -52.3,-184.922 -14.45,-32.371 -14.61,-32.32 -54.46,-26.64" style="fill:#c23336;fill-opacity:1;fill-rule:evenodd;stroke:none" id="path18"></path>      <path d="m 1023.57,1592.1 c 0,-30.79 0.52,-61.58 -0.25,-92.35 -0.31,-12.56 1.86,-18.13 16.46,-17.83 46.9,0.99 93.83,-0.08 140.74,0.67 14.24,0.23 29.19,0.79 41.47,10.48 49.34,38.98 61.73,79.22 43.61,138.8 -11.01,36.21 -53.76,70.47 -93,69.39 -43.93,-1.19 -87.95,-0.76 -131.92,0.07 -13.26,0.25 -17.92,-2.91 -17.43,-16.88 1.05,-30.75 0.31,-61.57 0.32,-92.35 z m -47.804,-87.55 c 0,74.15 0.019,148.3 -0.024,222.44 0,8.91 -1.554,17.71 12.481,17.52 68.967,-0.86 138.097,1.38 206.857,-2.67 37.27,-2.22 67.84,-23.44 91.9,-54.24 30.22,-38.71 44.3,-81.2 32.49,-128.59 -11.24,-45 -33.05,-84.5 -80.17,-102.73 -15.95,-6.17 -23.13,-9.92 -10.13,-30.42 27.44,-43.26 57.71,-84.86 81.75,-130.38 5.42,-10.26 22.27,-20.47 15.32,-29.92 -7.46,-10.14 -25.75,-2.29 -39.26,-3.53 -9.95,-0.92 -14.07,7.72 -18.02,13.9 -19.1,29.83 -36.27,60.91 -56.08,90.23 -15.03,22.27 -29.5,44.8 -43.3,67.81 -3.32,5.52 -8.77,4.53 -13.72,4.55 -39.65,0.08 -79.3,-0.49 -118.92,0.35 -13.24,0.28 -13.57,-6.11 -13.51,-16.01 0.31,-47.72 -1,-95.48 0.63,-143.15 0.79,-22.88 -13.37,-17.24 -25.533,-17.79 -12.773,-0.57 -23.574,-2.13 -23.242,18.02 1.215,74.85 0.481,149.75 0.481,224.61" style="fill:#ffffff;fill-opacity:1;fill-rule:evenodd;stroke:none" id="path20"></path>      <path d="m 1554.08,1503.42 c 0,72.71 0.56,145.43 -0.43,218.14 -0.22,17.04 4.31,23.16 21.61,23.06 93.28,-0.53 186.57,-0.85 279.84,0.2 20.33,0.24 18.62,-10.03 19.95,-24.09 1.69,-17.96 -5.9,-20.12 -20.99,-20.02 -76.39,0.6 -152.78,-0.15 -229.17,0.65 -15.12,0.17 -19.87,-3.22 -19.47,-19.01 1.16,-44.78 1.04,-89.62 0.04,-134.4 -0.32,-14.97 3.02,-19.9 18.99,-19.65 64.61,0.99 129.27,-0.49 193.88,0.94 19.94,0.44 19.77,-8.65 20.69,-23.51 1.09,-17.69 -5.93,-20.24 -21.49,-20.04 -64.62,0.83 -129.28,-0.09 -193.9,0.69 -14.32,0.17 -18.44,-3.56 -18.17,-18.06 0.95,-48.46 0.99,-96.96 0,-145.41 -0.3,-14.87 4.43,-17.99 18.42,-17.88 78.58,0.66 157.19,-0.33 235.77,0.83 17.74,0.25 20.35,-5.84 19.79,-21.18 -0.53,-14.65 -0.36,-23.58 -20.39,-23.32 -94,1.26 -188.04,0.94 -282.04,0.21 -18.11,-0.12 -23.65,5.21 -23.38,23.7 1.08,72.71 0.44,145.43 0.45,218.15" style="fill:#ffffff;fill-opacity:1;fill-rule:evenodd;stroke:none" id="path22"></path>      <path d="m 1554.08,797.148 c 0,72.704 0.73,145.418 -0.49,218.082 -0.33,19.36 6.84,22.98 23.88,22.88 91.79,-0.57 183.58,-0.58 275.36,0.03 16.15,0.11 22.5,-3.06 22.47,-21.33 -0.04,-18.837 -5.89,-22.732 -23.6,-22.49 -75.62,0.969 -151.27,-0.043 -226.88,0.793 -15.38,0.153 -19.7,-3.945 -19.36,-19.258 1.01,-44.781 1,-89.605 0,-134.343 -0.32,-15.09 3.35,-19.821 19.11,-19.582 64.6,0.941 129.23,-0.2 193.84,0.808 16.94,0.262 21,-4.957 20.65,-21.16 -0.33,-15.066 -2.01,-21.906 -19.99,-21.558 -64.6,1.218 -129.25,-0.309 -193.83,0.992 -17.6,0.316 -20.09,-5.602 -19.78,-21.012 0.99,-46.262 1.51,-92.57 -0.17,-138.762 -0.71,-19.429 5.86,-22.238 23.25,-22.019 77.08,0.972 154.2,-0.297 231.27,0.941 18.24,0.289 20.04,-6.461 19.59,-21.371 -0.43,-14.48 -0.02,-23.598 -20.22,-23.32 -93.97,1.301 -187.97,0.972 -281.96,0.222 -17.95,-0.152 -23.87,4.668 -23.59,23.379 1.1,72.7 0.45,145.379 0.45,218.078" style="fill:#ffffff;fill-opacity:1;fill-rule:evenodd;stroke:none" id="path24"></path>      <path d="m 4173.97,1503.08 c 0,73.43 0.39,146.87 -0.39,220.29 -0.14,15.73 2.98,21.59 20.31,21.42 92.54,-0.91 185.08,-1.11 277.59,0.09 20.53,0.26 17.5,-10.75 17.93,-23.2 0.45,-12.59 1.19,-21.44 -17.19,-21.16 -77.1,1.14 -154.21,-0.05 -231.27,0.88 -16.58,0.21 -20.97,-4.12 -20.48,-20.58 1.18,-44.75 1.05,-89.59 0.04,-134.35 -0.36,-15.03 4.69,-18.2 18.68,-18.06 65.35,0.66 130.71,-0.36 196.06,0.7 18.46,0.29 22.63,-5.52 23.42,-23.43 0.92,-21.1 -10.13,-19.83 -24.21,-19.78 -64.61,0.3 -129.21,-0.54 -193.82,0.6 -17.15,0.29 -20.53,-4.98 -20.13,-20.93 1.05,-46.96 0.96,-93.99 0,-140.96 -0.36,-15.18 3.33,-19.83 19.16,-19.65 77.85,0.85 155.67,-0.28 233.47,0.88 18.25,0.28 20.09,-6.83 19.66,-21.7 -0.44,-13.76 0.04,-22.9 -19.13,-22.69 -94,1.03 -187.99,0.86 -281.94,0.07 -15.57,-0.13 -18.11,5.54 -18.02,19.07 0.52,74.16 0.26,148.33 0.26,222.49" style="fill:#ffffff;fill-opacity:1;fill-rule:evenodd;stroke:none" id="path26"></path>      <path d="m 2946.08,742.379 c 27.11,0 54.22,-0.168 81.32,0.09 7.81,0.09 16.58,-5.039 9.08,12.722 -17.06,40.618 -33.9,81.539 -49.34,122.84 -10.79,28.789 -26.98,55.637 -32.5,86.293 -1.01,5.832 -4.78,6.625 -8.64,8.137 -4.96,1.949 -3.64,-2.789 -4.48,-4.809 -14.78,-35.238 -30.39,-70.172 -43.86,-105.922 -11.49,-30.519 -23.29,-60.789 -38.99,-89.468 -12.5,-22.832 -7.68,-29.883 19.26,-29.883 22.71,-0.039 45.43,0 68.15,0 z m -219.3,-186.34 c 14.78,37.531 26.71,73.602 42.94,107.66 21.71,45.59 38.82,93.012 59.17,139.129 28.38,64.344 55.04,129.453 82.28,194.301 2.28,5.331 3.38,11.111 5.22,16.611 7.68,23.2 17.28,29.29 41.45,23.79 13.16,-2.99 16.01,-16.63 20.22,-26.77 19.21,-46.217 35.79,-93.541 56.1,-139.248 15.43,-34.711 28.99,-70.133 44.12,-104.871 23.07,-52.852 44.82,-106.172 66.49,-159.563 6.63,-16.387 16.36,-31.316 18.12,-49.519 -47.81,-4.938 -49.87,-2.899 -66.1,39.632 -12.94,33.84 -25,68.11 -41.93,100.387 -3.82,7.313 -7.59,9.192 -14.83,9.192 -63.9,-0.18 -127.76,-0.149 -191.67,-0.059 -7.15,0.019 -10.87,-1.449 -13.99,-9.57 -15.96,-41.34 -34.87,-81.602 -49.26,-123.403 -5.39,-15.718 -12.15,-19.027 -26.18,-17.847 -10.22,0.839 -20.53,0.148 -32.15,0.148" style="fill:#ffffff;fill-opacity:1;fill-rule:evenodd;stroke:none" id="path28"></path>      <path d="m 0.992188,806.379 c -5.035158,38.992 9.734412,79.91 30.043012,117.133 17.2343,31.554 42.4765,58.004 74.0468,79.158 52.723,35.36 109.063,45.72 169.273,32.97 44.102,-9.36 83.047,-30.6 109.715,-69.253 1.535,-2.219 2.028,-4.5 4.793,-6.321 9.254,-6.093 16.535,-18.421 11.864,-25.699 -6.274,-9.765 -19.465,-15.508 -30.399,-21.707 -5.851,-3.34 -9.043,2.578 -11.387,7.231 C 325.266,986.43 241.82,1010.32 180.668,990.945 122.734,972.613 83.1211,932.918 61.8359,872.828 46.7578,830.262 43.3125,788.309 54.4023,747.031 68.8984,693.09 96.0156,647.051 148.672,617.27 c 45.582,-25.77 91.297,-23.899 136.68,-10.981 35.699,10.191 64.035,36.563 84.445,68.172 7.082,11 7.969,11.449 17.457,2.84 7.226,-6.563 26.105,-8.25 25.566,-15.11 -0.929,-11.609 -9.636,-24.152 -18.211,-33.382 C 333.324,562.988 247.129,532.07 150.5,566 104.355,582.211 67.9883,616.02 41.2656,660.539 14.8281,704.582 -0.742188,749.711 0.992188,806.379" style="fill:#ffffff;fill-opacity:1;fill-rule:evenodd;stroke:none" id="path30"></path>      <path d="m 577.484,1259.91 c -66.468,-2.55 -115.703,22.39 -157.457,65.94 -73.742,76.93 -87.14,168.35 -58.183,265.85 14.773,49.78 47.383,90.03 93.898,119.4 52.828,33.34 108.434,42.94 167.449,30.16 45.832,-9.92 85.844,-32.39 111.536,-74.51 2.121,-3.47 7.226,-5.18 9.203,-8.68 5.078,-9.11 14.351,-19.36 -4.938,-24.54 -4.812,-1.29 -7.937,-7.94 -12.574,-11 -6.055,-3.97 -12.809,-8.33 -18.215,1.59 -39.113,71.86 -119.875,91.1 -182.879,72.16 -48.41,-14.55 -83.511,-47.23 -107.129,-94.7 -24.968,-50.18 -26.019,-101.13 -15.418,-152.69 7.828,-38.12 28.375,-70.88 57.297,-99.13 47.61,-46.48 103.551,-55.23 164.071,-39.54 38.585,10 70.976,33.19 89.718,69.98 6.567,12.87 11.367,12.64 20.262,4.54 1.031,-0.94 1.383,-2.92 2.488,-3.39 7.797,-3.3 20.813,-3.49 20.723,-12.73 -0.074,-10.04 -5.129,-22.14 -12.039,-29.59 -17.984,-19.39 -37.094,-38.31 -60.625,-50.98 -34.914,-18.78 -71.789,-31.28 -107.188,-28.14" style="fill:#ffffff;fill-opacity:1;fill-rule:evenodd;stroke:none" id="path32"></path>      <path d="m 3560.27,1744.36 c 15.92,4.93 20.87,-5.63 26.89,-20.23 23.29,-56.65 46.27,-113.4 68.81,-170.36 14.12,-35.7 28.64,-71.29 43.43,-106.7 15.22,-36.43 31.53,-72.34 44.03,-109.86 1.1,-3.28 0.96,-7.78 6.05,-7.41 4.04,0.31 6.36,3.13 7.51,6.92 12.49,42.08 32.32,81.24 48.02,122.06 20.3,52.72 42.29,104.77 63.43,157.15 16.04,39.88 32.24,79.72 47.67,119.86 2.28,6.01 5,8.42 10.62,8.49 11,0.12 22.06,0.61 33.02,-0.19 7.33,-0.55 12.81,0.23 6.54,-12.51 -14.56,-29.44 -23.91,-61.44 -36.58,-91.88 -18.25,-43.78 -39.21,-86.47 -56.01,-130.77 -24.34,-64.29 -55.57,-125.72 -77.77,-190.91 -3.41,-10.13 -10.7,-19.47 -14.12,-30.5 -7.77,-25.02 -19.17,-31.2 -44.95,-25.38 -7.9,1.79 -12.51,6.3 -15.57,15.34 -22.64,67.11 -54.75,130.44 -79.44,196.89 -13.6,36.54 -29.26,72.65 -44.78,108.47 -19.83,45.6 -39.92,91.05 -57.86,137.4 -9.25,23.87 -8.5,24.16 21.06,24.12" style="fill:#ffffff;fill-opacity:1;fill-rule:evenodd;stroke:none" id="path34"></path>      <path d="m 2968.41,1481.22 c 0,-66.8 -0.79,-133.59 0.53,-200.37 0.35,-18.75 -7.64,-20.28 -21.98,-19.06 -12.94,1.08 -27.15,-5.11 -26.93,19.04 1.1,132.86 0.26,265.72 0.88,398.56 0.08,16.49 -3.29,22.67 -21.32,22.07 -43.99,-1.44 -88.12,-0.02 -132.11,-0.7 -15.57,-0.24 -19.3,5.96 -19.08,20.62 0.26,14.35 1.23,23.33 19.3,23.25 119.65,-0.52 239.31,-0.48 358.91,-0.09 21.98,0.08 11.85,-15.52 13.21,-24.85 1.49,-9.81 2.98,-19.62 -14.17,-19.14 -45.44,1.31 -91.01,-0.41 -136.49,0.88 -17.72,0.5 -21.36,-5.5 -21.1,-22.04 0.88,-66.03 0.35,-132.1 0.35,-198.17" style="fill:#ffffff;fill-opacity:1;fill-rule:evenodd;stroke:none" id="path36"></path>      <path d="m 3329.95,1502.2 c 0,-74.21 -0.61,-148.42 0.44,-222.61 0.26,-17.76 -7.8,-19.68 -20.96,-17.55 -12.37,2.01 -31.28,-8.38 -31.23,17.67 0.35,149.14 0.3,298.29 -0.09,447.44 -0.04,11.39 3.77,16.14 14.65,16.11 6.62,-0.03 13.33,-0.8 19.78,0.19 15.44,2.34 17.81,-5.09 17.68,-18.62 -0.57,-74.2 -0.27,-148.42 -0.27,-222.63" style="fill:#ffffff;fill-opacity:1;fill-rule:evenodd;stroke:none" id="path38"></path>      <path d="m 688.184,795.738 c 0.007,-73.347 -1.036,-146.738 0.613,-220.066 0.512,-23.293 -12.449,-18.934 -25.988,-19.871 -15.442,-1.031 -23.071,1.14 -22.954,20.48 0.954,147.457 1.086,294.949 -0.062,442.409 -0.188,22.58 12.234,17.95 24.715,18.33 13.375,0.39 24.777,2.92 24.297,-18.98 -1.625,-74.067 -0.621,-148.188 -0.621,-222.302" style="fill:#ffffff;fill-opacity:1;fill-rule:evenodd;stroke:none" id="path40"></path>      <path d="m 2404.53,380.449 c -6.62,-32.238 -21,-69.57 -57.48,-95.269 -4.4,-3.11 -4.05,-3.641 -8.66,-0.481 -38.05,26.071 -66.53,78.18 -57.17,126.321 2.15,11.031 8.05,11.89 16.91,11.769 24.87,-0.277 49.71,-0.059 74.58,-0.109 32.22,0 32.22,0 31.82,-42.231" style="fill:#c23336;fill-opacity:1;fill-rule:evenodd;stroke:none" id="path42"></path>    </g>  </g></svg>